<?xml version="1.0" encoding="UTF-8"?>
<svg id="Layer_1" data-name="Layer 1" xmlns="http://www.w3.org/2000/svg" viewBox="0 0 124.55 44.24">
  <defs>
    <style>
      .cls-1 {
        fill: #fff;
      }
    </style>
  </defs>
  <g>
    <path class="cls-1" d="M9.11,16.37h3.55v4.32h8.09v-4.32h3.55v11.67h-3.55v-4.46h-8.09v4.46h-3.55v-11.67Z"/>
    <path class="cls-1" d="M38.95,16.37v2.64h-9.43v2.01h8.89v2.31h-8.89v2.07h9.56v2.64h-13.06v-11.67h12.93Z"/>
    <path class="cls-1" d="M40.38,16.37h10.08c2.47,0,3.62.28,4.43,1.08.65.63.91,1.37,1.03,2.85.03.54.07,1.35.07,1.91,0,1.05-.07,2.26-.17,2.92-.19,1.4-1.17,2.49-2.45,2.73-.67.14-1.19.17-2.43.17h-10.55v-11.67ZM49.89,25.27c.96,0,1.03,0,1.45-.14.86-.26,1.08-.88,1.08-2.89,0-2.45-.42-2.96-2.47-2.96h-6.02v5.99h5.95Z"/>
    <path class="cls-1" d="M57.5,16.37h3.55v8.79h8.03v2.89h-11.59v-11.67Z"/>
    <path class="cls-1" d="M82.7,16.43c1.8.33,2.68,1.26,2.92,3.13.07.47.1,1.42.1,2.83,0,2.82-.3,3.96-1.29,4.78-.7.59-1.68.88-3.38.95-.63.04-2.19.05-3.33.05-2.78,0-4.2-.05-4.9-.19-1.3-.23-2.05-.72-2.49-1.58-.46-.86-.56-1.71-.56-4.27,0-1.96.04-2.45.25-3.24.33-1.24,1.02-1.91,2.33-2.29.98-.28,2.05-.35,5.13-.35,3.36,0,4.39.03,5.22.17ZM73.98,19.52c-.47.37-.61.95-.61,2.62s.14,2.35.58,2.71c.47.38,1.05.46,3.73.46,3.06,0,3.69-.1,4.1-.67.33-.42.42-1.01.42-2.57,0-2.94-.05-2.98-4.43-2.98-2.61,0-3.33.09-3.78.42Z"/>
    <path class="cls-1" d="M101.83,23.66c-.02,1.7-.07,2.27-.32,2.8-.46,1-1.4,1.47-3.22,1.59-.72.07-2.12.09-4.45.09-3.36,0-4.45-.16-5.39-.77-1.16-.74-1.49-1.96-1.49-5.43,0-3.08.35-4.18,1.58-4.88,1.05-.61,2.17-.77,5.44-.77,4.36,0,5.3.09,6.3.58.95.47,1.38,1.5,1.38,3.22v.38h-3.4c-.07-1.28-.33-1.38-3.41-1.38-2.91,0-3.43.07-3.87.46-.42.38-.51.86-.51,2.75,0,2.8.26,3.01,3.67,3.01,2.64,0,3.03-.02,3.52-.23.51-.21.7-.58.7-1.42h3.45Z"/>
  </g>
  <path class="cls-1" d="M1.55,8.16c25.98-9.74,45.95.85,53.65,6.71l2.79-2.4S33.35-7.22,1.41,7.85l.14.32Z"/>
  <path class="cls-1" d="M122.88,35.79c-25.98,9.74-45.95-.85-53.65-6.71l-2.79,2.4s24.64,19.69,56.58,4.62l-.14-.32Z"/>
</svg>